# Blender v3.2.0 OBJ File: ''
# www.blender.org
o Culot
v -0.052811 -0.000164 -0.004449
v -0.024637 -0.065231 -0.012102
v -0.016946 -0.000416 -0.040831
v -0.029150 -0.038993 -0.018117
v -0.053334 -0.000393 0.004838
v -0.027040 -0.070800 0.012328
v -0.030951 -0.041419 0.017930
v -0.016963 -0.000428 0.041282
v -0.060019 0.018804 -0.008452
v -0.053490 0.044188 -0.005030
v -0.017132 0.018840 -0.048828
v -0.050992 0.018812 -0.038532
v -0.015360 0.045925 -0.041134
v -0.035657 0.073368 -0.026053
v -0.061267 0.018798 0.005052
v -0.053575 0.045836 0.003215
v -0.050986 0.018860 0.039026
v -0.017073 0.018877 0.049306
v -0.038217 0.073092 0.025590
v -0.015506 0.045805 0.041483
v -0.000204 -0.065233 -0.014515
v -0.007597 -0.000184 -0.040304
v 0.005490 -0.037629 -0.018622
v 0.028207 -0.000164 -0.004450
v 0.002725 -0.072153 0.015256
v 0.007257 -0.040107 0.018403
v -0.007579 -0.000196 0.040755
v 0.028731 -0.000394 0.004838
v -0.003518 0.018834 -0.047553
v 0.026391 0.018821 -0.038535
v -0.006940 0.044258 -0.041034
v 0.013341 0.069260 -0.025345
v 0.035413 0.018802 -0.008450
v 0.028883 0.044187 -0.005027
v 0.026362 0.018942 0.039098
v -0.003505 0.018829 0.048005
v 0.015773 0.068811 0.025499
v -0.006962 0.044185 0.041453
v 0.036663 0.018802 0.005060
v 0.028975 0.045822 0.003221
vn -0.2796 0.2793 -0.9186
vn -0.9211 0.2742 -0.2763
vn -0.2859 0.2933 0.9122
vn -0.9189 0.2803 0.2776
vn 0.2778 0.2735 -0.9209
vn 0.9212 0.2742 -0.2761
vn 0.2983 0.3096 0.9029
vn 0.9191 0.2803 0.2770
vn 0.0075 -0.5091 -0.8607
vn -0.0955 -0.2380 -0.9666
vn 0.0063 -0.4966 0.8679
vn -0.1049 -0.1997 0.9742
vn 0.0553 0.5120 -0.8572
vn 0.0902 0.2587 -0.9617
vn 0.0434 0.5296 0.8472
vn 0.0930 0.2610 0.9608
vn -0.2698 -0.3716 -0.8883
vn -0.8602 -0.4247 -0.2824
vn 0.2653 -0.3925 -0.8806
vn 0.8643 -0.4185 -0.2791
vn -0.2843 -0.3995 0.8715
vn -0.8775 -0.3895 0.2796
vn 0.2652 -0.3942 0.8799
vn 0.8817 -0.3822 0.2767
vn -0.9812 -0.1828 -0.0613
vn -0.8618 -0.5036 -0.0610
vn -0.9617 0.2593 -0.0888
vn -0.8798 0.4643 -0.1018
vn 0.9758 -0.2103 -0.0607
vn 0.8664 -0.4939 -0.0744
vn 0.9617 0.2594 -0.0889
vn 0.8511 0.5237 -0.0361
vn -0.9252 -0.3697 -0.0857
vn 0.9252 -0.3696 -0.0856
vn -0.0222 -0.9743 -0.2243
vn 0.0834 0.9965 0.0095
vn 0.0614 -0.3823 -0.9220
vn 0.0613 -0.3828 0.9218
vn -0.2870 0.2895 -0.9131
vn -0.8941 0.3224 -0.3109
vn -0.2784 0.2829 0.9179
vn -0.9162 0.2854 0.2812
vn 0.3073 0.3144 -0.8982
vn 0.9003 0.3123 -0.3033
vn 0.2738 0.2755 0.9215
vn 0.9245 0.2698 0.2695
vn 0.0612 -0.4841 -0.8729
vn -0.0087 -0.1454 -0.9893
vn 0.0612 -0.4703 0.8804
vn -0.0090 -0.0965 0.9953
vn 0.1030 0.4674 -0.8780
vn 0.0646 0.2688 -0.9610
vn 0.0939 0.4788 0.8729
vn 0.0557 0.2756 0.9597
vn -0.2925 -0.4148 -0.8616
vn -0.8816 -0.3908 -0.2647
vn 0.2737 -0.4085 -0.8707
vn 0.8816 -0.3908 -0.2646
vn -0.2692 -0.3709 0.8888
vn -0.8889 -0.3704 0.2697
vn 0.2642 -0.3924 0.8810
vn 0.8887 -0.3703 0.2705
vn -0.9867 -0.1081 -0.1217
vn -0.8648 -0.4963 -0.0766
vn -0.9610 0.2691 -0.0637
vn -0.8562 0.5150 -0.0397
vn 0.9839 -0.1267 -0.1263
vn 0.8636 -0.5005 -0.0611
vn 0.9610 0.2691 -0.0641
vn 0.8803 0.4633 -0.1017
vn -0.9227 -0.3807 -0.0614
vn 0.9227 -0.3806 -0.0615
vn 0.0790 0.9969 0.0050
vn 0.0865 -0.3710 -0.9246
vn 0.0873 -0.3711 0.9245
s off
f 12//1 13//1 11//1
f 10//2 12//2 9//2
f 17//3 20//3 19//3
f 17//4 16//4 15//4
f 31//5 30//5 29//5
f 30//6 34//6 33//6
f 38//7 35//7 37//7
f 40//8 35//8 39//8
f 3//9 23//9 4//9
f 4//10 21//10 2//10
f 26//11 8//11 7//11
f 25//12 7//12 6//12
f 32//13 13//13 14//13
f 11//14 31//14 29//14
f 20//15 37//15 19//15
f 38//16 18//16 36//16
f 3//17 12//17 11//17
f 1//18 12//18 4//18
f 30//19 22//19 29//19
f 30//20 24//20 23//20
f 8//21 17//21 7//21
f 17//22 5//22 7//22
f 35//23 27//23 26//23
f 28//24 35//24 26//24
f 2//25 7//25 4//25
f 4//26 5//26 1//26
f 15//27 10//27 9//27
f 16//28 14//28 10//28
f 26//29 21//29 23//29
f 23//30 28//30 26//30
f 34//31 39//31 33//31
f 40//32 32//32 37//32
f 1//33 15//33 9//33
f 39//34 24//34 33//34
f 21//35 6//35 2//35
f 19//36 32//36 14//36
f 11//37 22//37 3//37
f 27//38 18//38 8//38
f 12//39 14//39 13//39
f 10//40 14//40 12//40
f 17//41 18//41 20//41
f 17//42 19//42 16//42
f 31//43 32//43 30//43
f 30//44 32//44 34//44
f 38//45 36//45 35//45
f 40//46 37//46 35//46
f 3//47 22//47 23//47
f 4//48 23//48 21//48
f 26//49 27//49 8//49
f 25//50 26//50 7//50
f 32//51 31//51 13//51
f 11//52 13//52 31//52
f 20//53 38//53 37//53
f 38//54 20//54 18//54
f 3//55 4//55 12//55
f 1//56 9//56 12//56
f 30//57 23//57 22//57
f 30//58 33//58 24//58
f 8//59 18//59 17//59
f 17//60 15//60 5//60
f 35//61 36//61 27//61
f 28//62 39//62 35//62
f 2//63 6//63 7//63
f 4//64 7//64 5//64
f 15//65 16//65 10//65
f 16//66 19//66 14//66
f 26//67 25//67 21//67
f 23//68 24//68 28//68
f 34//69 40//69 39//69
f 40//70 34//70 32//70
f 1//71 5//71 15//71
f 39//72 28//72 24//72
f 21//35 25//35 6//35
f 19//73 37//73 32//73
f 11//74 29//74 22//74
f 27//75 36//75 18//75
